# File created by Blade
# Date/Time:  Mon Nov 18 18:33:23 2013
# Frame Rate: 100.000 fps
#------------------------------------------------------
:FULLY-SPECIFIED
:DEGREES
66
root 52.893350 0.183350 51.266397 -4.677972 3.150398 -125.702688
Spine 7.133419 0.014795 -0.999829
Spine1 2.144894 1.766621 -2.139474
Spine2 0.873536 -2.281371 -2.567144
NeckDummy 0.004558 -0.069275 -0.021972 -0.623217 2.123878 -0.724349
Neck 20.530940 -0.168870 27.997051
Head -0.355031 0.345306 0.173481 -33.516986 -4.854162 -0.984503
LeftShoulderDummy -0.056763 -0.069041 -0.015307 -0.596555 2.006026 -0.567097
LeftShoulder 9.959468 -4.972830 16.738383
LeftArm 6.332378 42.243408 18.461612
LeftForeArm 90.264300
LeftForeArmRoll -30.623571
LeftHand -9.147334 5.195773 -2.003621
LeftHandThumb1 15.481621 13.345729
LeftHandIndex1 16.607600 42.201380
LeftHandPinky1 14.944599 46.944301
RightShoulderDummy -0.032405 -0.043387 0.046940 -0.639900 -2.143258 0.766387
RightShoulder 7.750625 4.054736 20.262504
RightArm -54.736587 60.496344 -12.655418
RightForeArm 112.485401
RightForeArmRoll 4.117291
RightHand -17.463791 -14.003286 11.711211
RightHandThumb1 -0.498449 13.555276
RightHandIndex1 13.016467 61.270929
RightHandPinky1 18.214978 68.870002
LeftUpLeg 11.341076 13.522732 -12.053426
LeftLeg 32.581411
LeftFoot 0.373473 -0.775965 -0.366512 -12.145540 11.204400 -6.812454
LeftToeBase -3.377533
RightUpLeg 15.777252 11.408926 -6.956459
RightLeg 34.527951
RightFoot -0.289094 0.153162 0.110726 -3.024870 3.726795 -21.923820
RightToeBase -0.942998
67
root 52.988051 0.153525 51.214387 -4.663318 3.197397 -125.427399
Spine 7.276563 0.038972 -1.036854
Spine1 2.175157 1.775780 -2.235400
Spine2 0.831064 -2.386244 -2.449537
NeckDummy 0.003785 -0.062369 -0.020483 -0.635182 2.045977 -0.736028
Neck 20.367495 -0.272980 28.010971
Head -0.358037 0.343592 0.174131 -33.476214 -4.897038 -0.986244
LeftShoulderDummy -0.058383 -0.062651 -0.012170 -0.609455 1.928947 -0.578425
LeftShoulder 9.723100 -4.948326 16.555267
LeftArm 6.316076 42.165624 18.469599
LeftForeArm 90.287946
LeftForeArmRoll -30.595616
LeftHand -9.152094 5.196344 -1.959434
LeftHandThumb1 15.542098 13.225761
LeftHandIndex1 16.330301 42.484509
LeftHandPinky1 13.999055 46.979236
RightShoulderDummy -0.034708 -0.036093 0.047115 -0.652475 -2.063345 0.774398
RightShoulder 7.545409 4.134384 20.186917
RightArm -55.204972 60.771149 -13.266718
RightForeArm 112.521187
RightForeArmRoll 4.075381
RightHand -17.375071 -14.031498 11.463448
RightHandThumb1 -0.673620 13.858598
RightHandIndex1 13.171088 61.252542
RightHandPinky1 18.354049 68.832016
LeftUpLeg 11.032462 13.701742 -12.764329
LeftLeg 33.382972
LeftFoot 0.383657 -0.809596 -0.400885 -12.224700 10.973532 -6.685187
LeftToeBase -3.244587
RightUpLeg 15.934607 11.387954 -7.150687
RightLeg 34.860511
RightFoot -0.280706 0.150464 0.111687 -2.924251 3.801335 -22.072473
RightToeBase -0.939472
68
root 53.077710 0.127973 51.161859 -4.720511 3.234664 -125.309563
Spine 7.485499 0.069021 -1.024658
Spine1 2.208846 1.785028 -2.209209
Spine2 0.848501 -2.436165 -2.515536
NeckDummy 0.003932 -0.060997 -0.021432 -0.686290 2.097350 -0.752065
Neck 20.211250 -0.436887 28.021186
Head -0.359441 0.340481 0.175567 -33.489547 -4.937453 -0.986562
LeftShoulderDummy -0.058364 -0.061348 -0.012228 -0.660868 1.981287 -0.596368
LeftShoulder 9.638141 -5.018708 16.462666
LeftArm 6.426402 41.941311 18.626800
LeftForeArm 90.279439
LeftForeArmRoll -30.611132
LeftHand -9.141764 5.113628 -2.037949
LeftHandThumb1 15.389278 13.284367
LeftHandIndex1 16.505791 42.485369
LeftHandPinky1 14.208485 46.971008
RightShoulderDummy -0.035887 -0.034055 0.049028 -0.704214 -2.113192 0.787314
RightShoulder 7.418254 4.230582 20.125283
RightArm -55.446822 61.032617 -13.618991
RightForeArm 112.553780
RightForeArmRoll 4.335836
RightHand -17.434163 -14.047295 11.464306
RightHandThumb1 -0.567785 13.704825
RightHandIndex1 13.089091 61.147355
RightHandPinky1 18.215439 68.764066
LeftUpLeg 10.907214 13.954385 -13.342747
LeftLeg 34.189608
LeftFoot 0.399824 -0.838990 -0.412511 -12.950070 10.789139 -6.526750
LeftToeBase -3.049680
RightUpLeg 15.943830 11.342962 -7.322612
RightLeg 35.193034
RightFoot -0.264326 0.156244 0.120877 -2.757899 3.865025 -22.161866
RightToeBase -1.036319
69
root 53.166215 0.097950 51.117606 -4.753654 3.354977 -125.136451
Spine 7.650698 0.012471 -1.019063
Spine1 2.243959 1.755790 -2.223343
Spine2 0.868785 -2.438035 -2.604021
NeckDummy 0.004424 -0.055920 -0.022432 -0.722018 2.160570 -0.765250
Neck 20.111154 -0.587295 28.083335
Head -0.362451 0.337873 0.179384 -33.536707 -4.974075 -1.016506
LeftShoulderDummy -0.058690 -0.056313 -0.013257 -0.697193 2.044923 -0.608508
LeftShoulder 9.598523 -5.103166 16.361261
LeftArm 6.680423 41.726552 18.874133
LeftForeArm 90.273880
LeftForeArmRoll -30.567956
LeftHand -9.117392 5.176848 -2.019867
LeftHandThumb1 15.451388 13.240464
LeftHandIndex1 16.353678 42.404138
LeftHandPinky1 14.095011 46.939368
RightShoulderDummy -0.036449 -0.028298 0.050758 -0.740178 -2.175984 0.798052
RightShoulder 7.317537 4.345773 19.994724
RightArm -55.593270 61.318524 -13.941859
RightForeArm 112.561206
RightForeArmRoll 4.447877
RightHand -17.485947 -13.974189 11.385848
RightHandThumb1 -0.763097 13.727216
RightHandIndex1 13.241743 60.951465
RightHandPinky1 18.414642 68.686654
LeftUpLeg 10.889720 14.161928 -14.015727
LeftLeg 35.065609
LeftFoot 0.403400 -0.874868 -0.434331 -13.157780 10.294896 -6.202484
LeftToeBase -3.401263
RightUpLeg 16.051300 11.422511 -7.547350
RightLeg 35.595049
RightFoot -0.254943 0.158881 0.130973 -2.628259 3.875984 -22.312796
RightToeBase -1.004670
70
root 53.258008 0.062163 51.082258 -4.732155 3.503633 -124.961746
Spine 7.813223 -0.043285 -1.035270
Spine1 2.279828 1.722578 -2.282454
Spine2 0.815462 -2.484381 -2.587868
NeckDummy 0.004288 -0.048941 -0.020805 -0.725770 2.153170 -0.776562
Neck 19.992424 -0.729060 28.195214
Head -0.362570 0.338500 0.183416 -33.659433 -4.953083 -1.021973
LeftShoulderDummy -0.059983 -0.049451 -0.011688 -0.701959 2.037771 -0.617140
LeftShoulder 9.389294 -5.074808 16.221399
LeftArm 6.761180 41.711789 18.916414
LeftForeArm 90.306265
LeftForeArmRoll -30.575221
LeftHand -9.134353 5.153824 -2.086550
LeftHandThumb1 15.421363 13.175851
LeftHandIndex1 16.295658 42.500893
LeftHandPinky1 13.994551 46.978042
RightShoulderDummy -0.037690 -0.020683 0.052304 -0.744314 -2.167467 0.806920
RightShoulder 7.356155 4.431025 19.915978
RightArm -55.402261 61.618738 -13.886909
RightForeArm 112.610426
RightForeArmRoll 4.804938
RightHand -17.461151 -13.923308 11.427303
RightHandThumb1 -0.479824 13.608818
RightHandIndex1 12.810211 60.982063
RightHandPinky1 18.094991 68.610475
LeftUpLeg 10.841973 14.359328 -14.754046
LeftLeg 35.955034
LeftFoot 0.377854 -0.910223 -0.439795 -12.873826 9.721914 -5.615597
LeftToeBase -4.649840
RightUpLeg 16.215638 11.578677 -7.860955
RightLeg 36.052028
RightFoot -0.251515 0.161267 0.143238 -2.615238 3.808742 -22.489230
RightToeBase -0.996734
71
root 53.344231 0.030693 51.049809 -4.731874 3.653180 -124.802910
Spine 7.976297 -0.094782 -1.053923
Spine1 2.302846 1.698458 -2.346759
Spine2 0.826816 -2.547991 -2.598401
NeckDummy 0.004169 -0.041970 -0.021468 -0.768062 2.164985 -0.794038
Neck 19.855032 -0.836643 28.241390
Head -0.365110 0.334596 0.188539 -33.698091 -5.024882 -1.033334
LeftShoulderDummy -0.059503 -0.042080 -0.010589 -0.743954 2.049993 -0.639454
LeftShoulder 9.363034 -5.057820 16.119487
LeftArm 7.071515 41.640882 19.122697
LeftForeArm 90.322053
LeftForeArmRoll -30.604406
LeftHand -9.144981 5.156308 -2.146399
LeftHandThumb1 15.402769 13.166824
LeftHandIndex1 16.285122 42.425018
LeftHandPinky1 13.951308 46.938668
RightShoulderDummy -0.038622 -0.012984 0.053638 -0.786849 -2.179524 0.824096
RightShoulder 7.279278 4.483975 19.749110
RightArm -55.515881 61.878697 -14.157198
RightForeArm 112.613552
RightForeArmRoll 4.927138
RightHand -17.511771 -14.196665 11.438834
RightHandThumb1 -0.397819 13.479718
RightHandIndex1 12.882500 61.264666
RightHandPinky1 18.162406 68.871627
LeftUpLeg 10.809497 14.556484 -15.454409
LeftLeg 36.800107
LeftFoot 0.371040 -0.927183 -0.479275 -13.190908 9.146720 -5.363133
LeftToeBase -4.212694
RightUpLeg 16.460430 11.757577 -8.171965
RightLeg 36.557094
RightFoot -0.253487 0.170371 0.152592 -2.527303 3.608843 -22.646140
RightToeBase -1.072011
72
root 53.421092 0.002139 51.007988 -4.794128 3.797954 -124.664706
Spine 8.179954 -0.194279 -1.035873
Spine1 2.367006 1.656777 -2.338086
Spine2 0.793782 -2.516679 -2.666604
NeckDummy 0.004385 -0.042959 -0.020309 -0.759080 2.212738 -0.791110
Neck 19.701637 -0.968283 28.270417
Head -0.366549 0.332110 0.190808 -33.734329 -5.050845 -1.011827
LeftShoulderDummy -0.060602 -0.043128 -0.011209 -0.736088 2.097525 -0.631448
LeftShoulder 9.227810 -5.005688 15.954384
LeftArm 7.309346 41.726463 19.286689
LeftForeArm 90.308360
LeftForeArmRoll -30.660885
LeftHand -9.182765 5.016362 -2.226793
LeftHandThumb1 15.423986 13.367789
LeftHandIndex1 16.460907 42.650407
LeftHandPinky1 14.187262 47.199609
RightShoulderDummy -0.038911 -0.013724 0.055118 -0.778687 -2.225788 0.818618
RightShoulder 7.251061 4.561474 19.706378
RightArm -55.339134 62.096538 -14.144071
RightForeArm 112.670978
RightForeArmRoll 4.917376
RightHand -17.357923 -14.105112 11.367918
RightHandThumb1 -0.325392 13.482881
RightHandIndex1 12.764612 61.096030
RightHandPinky1 18.289841 68.652675
LeftUpLeg 10.934041 14.812036 -16.047154
LeftLeg 37.620829
LeftFoot 0.385584 -0.951334 -0.495686 -13.732318 8.518541 -5.075700
LeftToeBase -4.022108
RightUpLeg 16.728388 11.928048 -8.380953
RightLeg 37.014720
RightFoot -0.255076 0.175073 0.158427 -2.426328 3.413127 -22.747063
RightToeBase -1.153132
73
root 53.503907 -0.028173 50.971718 -4.834019 3.919727 -124.602094
Spine 8.385072 -0.259807 -1.027295
Spine1 2.423567 1.626253 -2.338342
Spine2 0.784344 -2.542119 -2.703095
NeckDummy 0.004573 -0.041256 -0.020127 -0.770929 2.241618 -0.802320
Neck 19.525152 -1.071114 28.366327
Head -0.366627 0.329247 0.194820 -33.773814 -5.067800 -1.039092
LeftShoulderDummy -0.060627 -0.041301 -0.011075 -0.748096 2.126590 -0.643361
LeftShoulder 9.121768 -4.944029 15.786880
LeftArm 7.584501 41.823970 19.353893
LeftForeArm 90.374541
LeftForeArmRoll -30.811094
LeftHand -9.140248 5.069354 -2.214713
LeftHandThumb1 15.527404 13.400736
LeftHandIndex1 16.288864 42.464841
LeftHandPinky1 14.028735 47.074108
RightShoulderDummy -0.039195 -0.011540 0.056222 -0.790975 -2.254350 0.829307
RightShoulder 7.162349 4.610313 19.628695
RightArm -55.284211 62.327538 -14.118128
RightForeArm 112.615360
RightForeArmRoll 4.756684
RightHand -17.398746 -14.368606 11.350744
RightHandThumb1 -0.762371 13.387518
RightHandIndex1 13.368236 60.816077
RightHandPinky1 18.650393 68.650718
LeftUpLeg 11.051003 15.086193 -16.619946
LeftLeg 38.360719
LeftFoot 0.372639 -0.976219 -0.544873 -13.550295 7.649871 -4.740870
LeftToeBase -4.187736
RightUpLeg 16.869239 12.075229 -8.686474
RightLeg 37.555880
RightFoot -0.261580 0.187957 0.170085 -2.475086 3.289435 -22.918771
RightToeBase -1.177976
